<?xml version="1.0" encoding="utf-8"?>
<!-- Generator: Adobe Illustrator 28.1.0, SVG Export Plug-In . SVG Version: 6.00 Build 0)  -->
<svg version="1.1" id="Layer_1" xmlns="http://www.w3.org/2000/svg" xmlns:xlink="http://www.w3.org/1999/xlink" x="0px" y="0px"
	 viewBox="0 0 2000 2000" style="enable-background:new 0 0 2000 2000;" xml:space="preserve">
<style type="text/css">
	.st0{fill:#D6D6D6;}
	.st1{fill:#FFFFFF;stroke:#000000;}
</style>
<path class="st0" d="M650.6-642.5l1,68.1l-70.3,30.6l-2.8,1107l13.2,35.1l-14.3,64.8l0.2,1926.6c0,0,396.7,598.8,396.7,597.6
	c0-1.2,113-92.7,113-92.7l77.8-3315.3c0,0-180.7-395.4-180.5-396C984.8-617,650.7-640.4,650.6-642.5z"/>
<g transform="translate(0.000000,2000.000000) scale(0.100000,-0.100000)">
	<path d="M8340,29659l-1895-2844l-3-276c-1-153-6-279-10-279s-43,54-87,120s-87,120-96,120c-16,0-518-744-544-810
		c-13-33-15-651-15-5748c0-5127,2-5712,16-5754c8-27,44-90,79-144c35-51,62-105,60-114c-3-12-31-60-62-105c-32-45-66-105-75-129
		c-17-42-18-549-18-9873c0-5406,4-9846,8-9864c13-63,4025-6069,4053-6069c15,0,77,75,138,168l112,168l242-363
		c133-201,249-363,257-363c17,0,3490,5196,3533,5286c27,57,27,60,27,423v366l109,156c60,87,116,180,125,204c15,45,16,1467,16,16257
		c0,14676-1,16215-16,16251c-26,63-4026,6057-4044,6057C10241,32500,9382,31222,8340,29659z M12177,29215
		c1058-1584,1923-2889,1923-2901s-810-1236-1800-2721l-1800-2703l-1925,2889c-1059,1587-1923,2898-1922,2913
		c3,27,3588,5415,3597,5406C10253,32095,11120,30799,12177,29215z M8530,23428l1905-2859l3-15906c1-8745,0-15903-3-15903
		s-32,42-65,90l-60,90v9732c0,9234-1,9732-18,9777c-9,24-40,78-67,117c-85,120-85,111,1,246l79,123l3,5727c2,4968,0,5733-12,5775
		c-8,27-852,1302-1875,2838l-1861,2790v156v159l33-48C6610,26305,7482,25000,8530,23428z M8177,23215c1058-1584,1923-2889,1923-2901
		s-79-141-176-285l-176-261l-1924,2889c-1058,1587-1924,2895-1924,2907c0,24,340,540,350,534C6253,26095,7120,24799,8177,23215z
		 M7756,22339l1934-2901v-5394c0-3645-3-5394-10-5394c-6,0-710,1050-1565,2331l-1555,2334l-2,3375l-3,3375l-120,186
		c-66,105-137,204-157,222c-74,69-70,93-211-1389l-127-1332v-1746c0-960-2-1746-5-1746s-32,42-65,90l-60,90v5400
		c0,2970,3,5400,6,5400S6692,23935,7756,22339z M6361,19927c57-84,60-96,54-171c-4-45-56-600-116-1233l-109-1152v-2124v-2127l-65,96
		l-65,96v2154v2154l110,1164c121,1278,117,1236,125,1236C6298,20020,6328,19978,6361,19927z M5940,13570c0-66-8-75-30-30
		c-13,27-13,33,0,60C5932,13645,5940,13636,5940,13570z M5953,13042c73-108,135-207,140-219c4-12-25-69-64-123c-39-57-75-126-80-156
		s-9-1485-9-3489V5614l90-1473c49-813,105-1731,124-2046c19-312,38-594,42-624c8-63,276-471,309-471c12,0,29,24,38,54
		c16,51,17,489,19,5562l3,5508l1563-2343l1562-2343v-9522c0-8520-2-9519-15-9510c-9,6-881,1305-1939,2889L5812-5825l-1,9534
		c-1,5241,2,9531,5,9531S5881,13150,5953,13042z M8120,10555c885-1329,1619-2415,1631-2415s73,78,135,171l113,171l51-72
		c27-39,50-81,50-96c0-12-79-141-176-285l-175-261l-1675,2514c-921,1380-1674,2520-1674,2532c0,27,79,150,97,153
		C6504,12970,7234,11884,8120,10555z M6320,12505c17-27,30-57,30-69s-23-54-51-93l-52-69l-48,69c-27,36-49,78-49,93
		c0,12,21,54,47,96C6247,12607,6256,12604,6320,12505z M6135,12019l55-81V8590V5242l110-1812c60-999,110-1833,110-1854
		c0-27-17-12-52,45l-53,84l-122,2010l-122,2010l-1,3189c0,2055,3,3186,10,3186C6075,12100,6104,12064,6135,12019z"/>
</g>
<path class="st1" d="M1025.2-1210.1L665.4-670.4l385.2,582l359.3-542.4L1025.2-1210.1z"/>
<path class="st1" d="M625.4-610.4L590.2-557L974.4,23.2l35.4-53.7L625.4-610.4z"/>
</svg>
